<svg xmlns="http://www.w3.org/2000/svg" viewBox="0 0 116.51 146.91"><defs><style>.cls-1,.cls-5{fill:#ccc;}.cls-2{fill:#ebc680;}.cls-3{fill:#cf8378;}.cls-4{font-size:26.18px;fill:#fff;font-family:Inter-Medium, Inter;font-weight:500;}.cls-5{opacity:0.11;}.cls-6{opacity:0.7;}</style></defs><g id="Layer_2" data-name="Layer 2"><g id="Layer_1-2" data-name="Layer 1"><polyline class="cls-1" points="82.73 134.52 81.08 134.52 81.08 51.94 82.73 51.94"/><path class="cls-2" d="M40.35,101l-.19,0h0c-2.44.34-4.59,1.78-6.82,2.81-1.29.6-2.59,1.15-3.89,1.71l-1.92.82-1.09.51a3.89,3.89,0,0,1,.38-.43,6.48,6.48,0,0,1,1.11-.84l1.87-.72a46.79,46.79,0,0,0,6.93-3.57,17.15,17.15,0,0,0,1.67-1c.77-.53.08-1.82-.71-1.32l-1.55,1c-2.06,1.16-4.27,2-6.39,3a20.58,20.58,0,0,0-2.48,1.35L22.64,106a15.13,15.13,0,0,1,1.88-1.6l.23-.09a39.07,39.07,0,0,0,5-2.53c.67-.39,1.33-.8,2-1.2,2.89-1.22,5.95-2.46,8.14-4.75a.75.75,0,0,0-.87-1.2,83.43,83.43,0,0,0-7.86,4.55c-1,.44-2,.88-3,1.36a28,28,0,0,0-4.32,2.55,6.88,6.88,0,0,1-1.52.37c2.14-1.34,4.29-2.66,6.51-3.84,2.6-1.39,5.31-2.54,7.65-4.41a.75.75,0,0,0-.72-1.32,66.9,66.9,0,0,0-7,3.88,20.87,20.87,0,0,1-4.31,2.36c.66-.38,1.34-.73,2-1.13a37.52,37.52,0,0,0,4.3-3.14c1.34-1.09,2.68-2.2,4.12-3.15a44.41,44.41,0,0,1,4.67-2.6c.76-.39.19-1.56-.55-1.4a19,19,0,0,0-5.47,2.19c.2-.52-.3-1.27-.85-1q-2.49,1.06-5,2a25.75,25.75,0,0,1-4.34,1.38c.53-1.27,2.24-1.9,3.2-2.68.72-.59,0-1.91-.72-1.32-1.64,1.33-4.15,2.21-4.07,4.88,0,.39.32.8.71.77A15.69,15.69,0,0,0,26.15,94l-.22.14c-1.88,1.23-4.18,3.07-4.41,5.62a.62.62,0,0,0,.11.43,6.51,6.51,0,0,0-.58.46c-.53.48,0,1.23.5,1.31h.28l-2,1.24c-.42.27-.5,1.09,0,1.32a4.69,4.69,0,0,0,1.76.43,14.93,14.93,0,0,0-1.91,2.32c-.35.53.24,1.33.8,1.12l4.25-1.58a1.94,1.94,0,0,0-.19,1.13c.26,1.46,2,.48,2.68.17l1-.42a8,8,0,0,0-2.5,2.59.76.76,0,0,0,.8,1.12l1.75-.32a15.83,15.83,0,0,0-2.45,1.39,1.15,1.15,0,0,0,.11,2,6.15,6.15,0,0,0,5.38.2,2.93,2.93,0,0,0,.1.37c1.08,2.77,5.38,1.49,7.19.54.82-.43.11-1.75-.71-1.32a7.37,7.37,0,0,1-2.81.84c-.55,0-2.66.13-2.36-1l0-.07c1-.47,1.93-1,2.91-1.51a5.53,5.53,0,0,0,2.52-1.86.75.75,0,0,0-1-1l-4.45,2.55a4.12,4.12,0,0,0-.82.6,8.76,8.76,0,0,1-2.57.82,5.3,5.3,0,0,1-1.54,0,3.56,3.56,0,0,1-.56-.15l-.11,0c.58-.36,1.26-.65,1.83-.94.89-.47,1.8-.92,2.72-1.33s2.08-.88,3.13-1.27a11.58,11.58,0,0,0,2.45-.88c.73-.38.22-1.65-.55-1.4s-1.64.56-2.46.87-1.85.34-2.75.51l-3.29.61c.43-.35.89-.67,1.33-1,1.12-.83,2.25-1.66,3.42-2.42a36.75,36.75,0,0,1,7.56-3.63C41.25,102.25,41.2,100.92,40.35,101ZM25,96.71a17.41,17.41,0,0,1,2.77-1.93l.45-.27c-1.41,1.08-2.81,2.19-4.25,3.21A10.8,10.8,0,0,1,25,96.71Z"/><polygon class="cls-3" points="99.73 0 66.16 0 49.38 28.67 66.16 57.34 99.73 57.34 116.51 28.67 99.73 0"/><text class="cls-4" transform="translate(64.44 36.98)">ing</text><path class="cls-5" d="M23.94,143.92a131.45,131.45,0,0,1,16.29-2.09q8.25-.54,16.53-.71t16.62-.68a148.66,148.66,0,0,0,16.71-1.94c.68-.1-.78-1-.73-.94-.68-.47-2-1.63-2.86-1.65q-8,0-16-.57-7.15-.79-14.32-1.42c-15.49-1.42-30.84,1.13-46.15,3.17-.81.11.57,1,1,1,16.2-2.3,32.88-5.27,49.34-3.48,9.93,1.08,19.83,2.65,29.73,3.9l-3.59-2.59a158.53,158.53,0,0,1-16.68,1.9q-8.34.49-16.7.74t-16.65.87q-8.09.66-16.07,2c-.67.09.77,1,.72.93C21.66,142.68,23.22,144,23.94,143.92Z"/><path class="cls-5" d="M24.53,146.91a99,99,0,0,1,16.35-2.2q8.23-.51,16.49-.67t16.6-.66a147,147,0,0,0,16.73-2c.58-.08-1.12-2-1.59-2a127.52,127.52,0,0,1-19.3-1.86q-7.19-1-14.43-1.57c-15.62-1.31-30.74,1-46.22,3.06-.18,0-.34.6,0,.56,15.23-2,30.88-4.7,46.31-3.29,11.82,1.08,23.52,3.41,35.27,5.08l-1.59-2a154.15,154.15,0,0,1-16.73,2q-8.3.51-16.61.72t-16.5.76a87.81,87.81,0,0,0-16.3,2.3C22.41,145.28,24.07,147,24.53,146.91Z"/><path class="cls-5" d="M22.08,142.23a136.15,136.15,0,0,1,16.36-2q8.27-.57,16.56-.78t16.65-.71a153.56,153.56,0,0,0,16.7-1.94,1.65,1.65,0,0,0-.79-.75c-.79-.52-1.59-1-2.4-1.52-1-.63-2-1.25-3-1.85A14.25,14.25,0,0,0,80,131.48,114.26,114.26,0,0,1,62.4,129q-14-2-27.93-4.11l.61.56q-7.93-12.66-23.44,11.66a1.48,1.48,0,0,0,.93.46c1.22.35,2.46.68,3.7,1,.47.12,4.13,1.45,4.77.88q10.23-9.27,22.76-8a86.24,86.24,0,0,1,14.36.9l9.66,1.37q10.07,1.9,20.23,3.06l-8.39-5.29q-8.3,1.31-16.65,1.85t-16.81.93c-11,.6-22,1.55-32.94,2.88a1.65,1.65,0,0,0,.81.73c1.14.72,2.29,1.41,3.46,2.08s2.33,1.33,3.51,2A1.68,1.68,0,0,0,22.08,142.23Z"/><path class="cls-5" d="M22.28,143.62a135.42,135.42,0,0,1,16.3-2c5.51-.37,11-.62,16.56-.75s11.1-.36,16.65-.69a148.76,148.76,0,0,0,16.7-1.94,1.1,1.1,0,0,0-.55-.69c-.59-.48-1.19-.94-1.8-1.39s-1.52-1.14-2.29-1.69a9.34,9.34,0,0,0-1.66-1.06,111.2,111.2,0,0,1-15.51-2.22,12.44,12.44,0,0,0-9.19-.23q-8.18,2.15-16.51,3.6Q25.71,136,10.53,138.34c-.79.11,1.33,1.07,1.13,1,.82.4,1.65.79,2.49,1.15a4.25,4.25,0,0,0,1.35.47q12.41-1.43,24.6-4,9.74-2.09,19.64-3.29l9,1.33q9.72,1.92,19.54,3.24l-6.31-4.83q-8.28,1.34-16.64,1.86t-16.76.87c-10.94.53-21.8,1.45-32.68,2.78a1.1,1.1,0,0,0,.54.68c.82.66,1.65,1.31,2.5,1.93C19.44,141.87,21.38,143.76,22.28,143.62Z"/><path class="cls-5" d="M24.45,143.4a126.47,126.47,0,0,1,16.22-2.1q8.25-.53,16.52-.69T73.81,140A148.66,148.66,0,0,0,90.52,138c.59-.09-.54-.77-.49-.73a4.81,4.81,0,0,0-2.07-1,171.26,171.26,0,0,1-18.08-1.77,160.83,160.83,0,0,0-18.6-1.8c-14.15-.45-27.8,1.66-41.79,3.49-.54.07.21,1,.57,1a217.16,217.16,0,0,1,35.36-3.9,58.4,58.4,0,0,1,14.93.63c10.08,1.18,20.1,2.81,30.17,4.09L88,136.32a153.3,153.3,0,0,1-16.69,1.9q-8.34.5-16.69.7T38,139.71q-8,.63-16,2c-.57.09.51.75.47.72C22.85,142.74,23.88,143.49,24.45,143.4Z"/><path class="cls-5" d="M22,141.73a190.17,190.17,0,0,1,24.38-2.48q6.23-.24,12.45-.44,6.37-.19,12.74-.59a153.54,153.54,0,0,0,16.7-1.93,1,1,0,0,0-.63-.61c-.64-.4-1.29-.78-1.95-1.15-.81-.46-1.64-.92-2.47-1.36a8.75,8.75,0,0,0-1.78-.83,176.92,176.92,0,0,1-17.79-1.83,45.38,45.38,0,0,0-19.18,1.28,19.6,19.6,0,0,0-6.21,2.45q-13.83,1.48-27.67,2.9a1,1,0,0,0,.5.7c.78.7,1.57,1.37,2.39,2,.6.49,2.27,2.3,3.25,2.27q10.67,4.46,17.88-1.23a97,97,0,0,1,14.13-8.65l-1.19.11a91.57,91.57,0,0,1,20.32,1.1q10,1.69,20.15,2.83l-6.83-3.94q-8.28,1.32-16.65,1.85l-24.94,1.31c-8.3.54-16.54,1.41-24.79,2.46a1.06,1.06,0,0,0,.65.59c.92.54,1.86,1.05,2.81,1.54C19.06,140.53,20.93,141.89,22,141.73Z"/><path class="cls-5" d="M22.76,144.76a131.82,131.82,0,0,1,16.32-2q8.27-.56,16.56-.73t16.65-.68A151.14,151.14,0,0,0,89,139.36a1.34,1.34,0,0,0-.6-.79c-.9-.81-1.82-1.6-2.76-2.36s-2.52-2.58-3.73-2.71a121.38,121.38,0,0,1-14.73-2.06,17,17,0,0,0-9.57-.1q-8.12,1.49-16.06,3.77-15.4,1.74-30.74,4c-.78.1,1.33.88,1,.77.9.34,2.47,1.16,3.47,1A270.35,270.35,0,0,0,45,135.63a23.64,23.64,0,0,1,11.07-1.24,61.19,61.19,0,0,1,13.06,1.5q9.9,2,19.88,3.47L81.9,133.5q-8.28,1.32-16.65,1.86t-16.75.88c-10.93.53-21.78,1.45-32.64,2.76a1.33,1.33,0,0,0,.58.78c.88.79,1.77,1.57,2.69,2.32C19.61,142.5,21.85,144.9,22.76,144.76Z"/><path class="cls-5" d="M23.61,142.3a118.88,118.88,0,0,1,16.17-2.13q8.27-.51,16.53-.68t16.63-.65a148.66,148.66,0,0,0,16.71-1.94c.41-.06-.13-.47-.19-.53a3.65,3.65,0,0,0-1.62-.78c-10.86-1-21.66-2.51-32.52-3.56-15.41-1.47-30.91,1.24-46.13,3.28-.49.07,1.26,1.82,1.79,1.74,14.7-2.25,29.34-5,44.28-4.45a70,70,0,0,1,13.68,1.45q10.23,1.55,20.49,2.84l-1.82-1.3a153,153,0,0,1-16.69,1.91q-8.34.5-16.69.69T37.59,139a125.41,125.41,0,0,0-15.93,2.13c-.5.08.37.63.35.62A3,3,0,0,0,23.61,142.3Z"/><path class="cls-5" d="M22.45,143.33a136.41,136.41,0,0,1,16.36-2q8.28-.56,16.57-.76c5.55-.13,11.11-.36,16.65-.7a151,151,0,0,0,16.71-1.94,1.94,1.94,0,0,0-.83-.87q-1.75-1.35-3.57-2.62c-1.2-.86-2.42-1.71-3.65-2.52a1.86,1.86,0,0,0-1.09-.5l-16.4-2.9a57.76,57.76,0,0,1-10.86-3q-2.45-2.13-4.44-.09A95.3,95.3,0,0,1,11.51,138.7a1.2,1.2,0,0,0,.71.59c1,.53,2,1,3,1.5.68.32,3,1.87,4,1.57,23.61-7.56,16.4-.9,27-15.29l-5,5.23,9.26-.5q6.68.75,13.29,1.93c8.35,1.39,16.63,2.93,25,4.16l-9.14-6.51q-8.28,1.31-16.64,1.85t-16.81.94q-16.5.9-32.87,2.84a1.89,1.89,0,0,0,.83.85q1.77,1.3,3.59,2.55c1.2.84,2.42,1.65,3.66,2.45A1.82,1.82,0,0,0,22.45,143.33Z"/><path class="cls-5" d="M22.42,142.65a126.28,126.28,0,0,1,16.21-2.08q8.26-.56,16.55-.74t16.63-.68a151,151,0,0,0,16.71-1.94c.71-.1-.94-1-.86-1-.81-.53-2.19-1.7-3.21-1.76q-7.78-.53-15.59-.88-6.56.06-13.11-.31a108.54,108.54,0,0,0-15.72.12A287,287,0,0,0,9.8,136.8c-.67.09.78,1,.73.95.53.38,2.1,1.77,2.83,1.66,14.62-2.16,29-4.26,43.76-5a63.84,63.84,0,0,1,12,.16q9.7,1.41,19.43,2.65l-4.07-2.75a166.12,166.12,0,0,1-16.66,1.87q-8.36.51-16.72.78c-11,.46-21.82,1.32-32.71,2.84-.71.1.95,1,.86,1,.68.42,1.36.82,2.06,1.21A3.44,3.44,0,0,0,22.42,142.65Z"/><path class="cls-5" d="M24.35,142.19a187.61,187.61,0,0,1,28.34-2.7l12.66-.38,8.33-.4a146.42,146.42,0,0,0,16.71-2c.39-.05-.11-.45-.16-.5a3.09,3.09,0,0,0-1.46-.69c-11.17-1.21-22.31-2.87-33.5-3.83-15.43-1.31-30.55,1.09-45.81,3.12-.54.07.86,1.48,1.3,1.42,14.75-2.19,29.59-5.06,44.57-4,11.67.81,23.28,2.92,34.86,4.52l-1.62-1.2c-5.56.81-11.08,1.55-16.69,1.94-6.89.47-13.8.59-20.69.82-4.21.13-8.42.27-12.62.6a160.77,160.77,0,0,0-16,2.2c-.49.09.35.6.33.58A2.5,2.5,0,0,0,24.35,142.19Z"/><path class="cls-5" d="M22.12,143.92a136.37,136.37,0,0,1,16.36-2c5.52-.38,11.05-.62,16.58-.75s11.11-.36,16.65-.69a151,151,0,0,0,16.71-2,1.56,1.56,0,0,0-.67-.83c-1-.86-2-1.7-3-2.51s-2.73-2.73-4-2.9l-15.57-2.86a25.29,25.29,0,0,0-9-1.88c-6.64-.45-3.17.4-14.71,6.53L46,132.88A293.86,293.86,0,0,1,11,139c-.89.13,1.74,1.14,1.46,1,1,.44,2.06.85,3.1,1.25a6.8,6.8,0,0,0,1.66.51c23.44-4.47,13.82-1,30.43-8.82l-5.62,1.37,9.16-1.58a86.17,86.17,0,0,1,12.62,1.56c8.21,1.42,16.34,3,24.57,4.24l-7.71-6.24q-8.28,1.32-16.64,1.87t-16.79.91q-16.45.84-32.78,2.81a1.46,1.46,0,0,0,.65.82c1,.83,2,1.65,3,2.44C18.67,141.54,21.14,144.07,22.12,143.92Z"/><g id="사람" class="cls-6"><path d="M34.73,32.88v0c2.78-1.12,6.36-4.65,8.1-6.49a4.41,4.41,0,0,0,1.26-3.14c0-1.42-1,.47-1,.47C42.54,26,36.84,29.56,34,31.21a9.73,9.73,0,0,0,3.72-6.88,1.91,1.91,0,0,0-.28-1.21c-.44-.72-.44-.18-.44-.18,1.09,2.74-4.11,7.06-7.14,9.28A7.76,7.76,0,0,1,26,33.73c-9.75,1-16.56,9.85-16.56,9.85h0C-2,59.63,5.64,74.15,5.65,74.17h0C17.12,92.52,33.17,88.69,33.17,88.69,48.45,86.4,53,75,53.05,74.93h0c.77-3.82-1.53-2.29-1.53-2.29-.76.76-2.29,0-2.29,0C40.29,68.91,37.16,63,37,62.71H50.76a9,9,0,0,0,5.38-2.81,2.74,2.74,0,0,0,.69-2C55.57,35.63,35.65,33,34.73,32.88Zm19.85,26a6.35,6.35,0,0,1-1.15.86,9.77,9.77,0,0,1-5.19,1.44H37s-3.83,0,0,4.58c0,0,3.86,6.45,10.07,8.44a8.42,8.42,0,0,0,1.58.36c.74.09,2.66.28.56,2.44,0,0-7.39,9.84-19.28,10.17a10.35,10.35,0,0,1-1.47-.08C25,86.65,12.16,84.17,6.7,70.35a10,10,0,0,1-.51-1.85c-.58-3.2-1.75-12.92,3.28-21.1,0,0,5.72-9.29,12.32-10.59a6.21,6.21,0,0,0,.74-.2,8.11,8.11,0,0,0,.78-.28c2.71-1.1,11.52-4,19.8,1.13,0,0,9.94,3.83,12.24,17.59C55.35,55.05,56.11,58.11,54.58,58.87Z"/><path d="M33.44,50.29a5.15,5.15,0,0,1,1.27,2.8c.09,1.55,2,1.7,1.81-.72A4.68,4.68,0,0,0,34,48.82s-1-.18-.9.61A2.75,2.75,0,0,0,33.44,50.29Z"/><path d="M42.12,48a5.17,5.17,0,0,1,1.26,2.8c.09,1.55,2,1.71,1.81-.71,0,0-.34-2.68-2.55-3.56,0,0-1-.18-.9.62A2.67,2.67,0,0,0,42.12,48Z"/><path d="M17.16,87.66s1.23-.47,1,.89a.7.7,0,0,1-.08.16,18.45,18.45,0,0,1-4.41,3.75S6.29,95.62,5,101.54c0,0-.78,5.53-2.89,8.38,0,0-2.37,1.66-2.12-1.66,0,0,2.12-12.67,9-15.47a36.73,36.73,0,0,0,6.42-3.67,1.94,1.94,0,0,0,.21-.2A7.6,7.6,0,0,1,17.16,87.66Z"/><path d="M41.32,89.94a1.4,1.4,0,0,1,0-1.27s.69-.36,1,.17c0,0,3.85,4.73,5.88,4.9,0,0,2.91,1.26,7.75,0,0,0,7.18-1.25,10.73-6.51,0,0,.74-.81,1.42-.07,0,0,1,1.3-.43,3.29,0,0-4.33,5.25-11.1,6,0,0-4.88,1.06-8.62-.19A15,15,0,0,1,41.32,89.94Z"/><path d="M39,89v0a.79.79,0,0,1,1.42-.62,6.74,6.74,0,0,1,.79,2.07,91,91,0,0,1,2.21,26.24,2.25,2.25,0,0,1-1.55,2,71.46,71.46,0,0,1-12.78.2A8.08,8.08,0,0,1,28,118.7a18,18,0,0,1-7.07-3.32s-1.66-1.2-1.29.45c0,0,.06.46-.5.54a1.06,1.06,0,0,1-1.08-1s-.48-13.14.47-16.16a9.35,9.35,0,0,0,.23-1c.21-1.32.61-4.32.91-9.48,0,0-.12-1.86,1.05-.48a5.58,5.58,0,0,1,.64,2.23,36,36,0,0,1-.77,8,8.12,8.12,0,0,0-.32,2.07v.23s0,8.51-.4,10.62a2,2,0,0,0,.87,2l0,0a24.32,24.32,0,0,0,7.46,3.08s7.41,1,11.14.2A1.71,1.71,0,0,0,40.68,115v0A92.93,92.93,0,0,0,39,89Z"/><path d="M19,117.79a1.84,1.84,0,0,0,.17-.22c.17-.29.77-1.33,1.11-.94,0,0,.37.67-.62,2.72a66.61,66.61,0,0,1-7.34,10.31,2.12,2.12,0,0,0-.34,3,14.49,14.49,0,0,0,2.11,1.78l.15.11a1.16,1.16,0,0,1-1.18,2l-.25-.13a8.77,8.77,0,0,1-3.48-3.33A3.07,3.07,0,0,1,9.4,130S12.87,125,19,117.79Z"/><path d="M40.85,120.43a2.52,2.52,0,0,1-.13-1.51.76.76,0,0,1,1.23-.44,3.42,3.42,0,0,1,.75,1s2.41,5.48,3.67,8.6c0,0,.5,1.72,2,1.7,0,0,3.22.05,4.53,0,0,0,1.53-.05,1.8.74a.69.69,0,0,1,0,.45,1.7,1.7,0,0,1-1.2,1.25s-4,.2-5.73.08a1.66,1.66,0,0,1-1-.49C45.76,130.76,43.45,126.82,40.85,120.43Z"/></g></g></g></svg>