<svg xmlns="http://www.w3.org/2000/svg" viewBox="0 0 314.13 228.29"><defs><style>.cls-1{fill:#ef8c81;}.cls-2{fill:none;}.cls-3{fill:#7a5853;}</style></defs><g id="Layer_2" data-name="Layer 2"><g id="Layer_1-2" data-name="Layer 1"><path d="M114.48,136.48c-1.44-4-4.07-9.7-8.44-13.88a5.6,5.6,0,0,1-10.12-3.32,5.5,5.5,0,0,1,.37-2,33.37,33.37,0,0,0-13.72-.12,4.84,4.84,0,0,0-3.95,5.4c.72,5.27,3,14,9.94,18.3,6.82,4.22,16.49,3.18,22.32,2A4.85,4.85,0,0,0,114.48,136.48Z"/><path d="M218.07,114.53c-4.59-.86-11.81-1.45-18.48,1.18a5.6,5.6,0,1,1-8.66,6,41.54,41.54,0,0,0-8.23,14.24,5.37,5.37,0,0,0,4,7.05c6.47,1.34,17.17,2.48,24.74-2.19,7.74-4.79,10.22-14.44,11-20.28A5.38,5.38,0,0,0,218.07,114.53Z"/><path class="cls-1" d="M226.64,143.5a32.09,32.09,0,0,1,58.69-7.24,45.56,45.56,0,0,1-5.89,12.39l-6.22-3.84a10.29,10.29,0,0,0-14.23,3.6,10.71,10.71,0,0,0,3.46,14.52l.73.46A46.39,46.39,0,0,1,241,169H230.13a32.33,32.33,0,0,1-3.49-25.5Z"/><path class="cls-1" d="M45.91,122a32.63,32.63,0,0,0-17.78,5.24v21.52A19.39,19.39,0,0,0,47.54,168H76a32.84,32.84,0,0,0-30.07-46Z"/><path class="cls-2" d="M223.35,44.14c-1.52,0-3,.08-4.53.19l-51.88,91.52a17.66,17.66,0,0,0-2.29,8.69V168h58.7c1.36,0,2.71,0,4-.13a63.62,63.62,0,0,0,7.87-1,63,63,0,0,0,7.53-1.94,62.22,62.22,0,0,0,10.52-4.52l-1-.61a14.36,14.36,0,0,1-6.55-14.27,14.06,14.06,0,0,1,1.2-4.05,14.51,14.51,0,0,1,.68-1.29,14.13,14.13,0,0,1,4.9-4.92,14.42,14.42,0,0,1,2.45-1.16,14.68,14.68,0,0,1,2.61-.66,14.23,14.23,0,0,1,2.69-.14,13.75,13.75,0,0,1,2.69.39,13.47,13.47,0,0,1,3.87,1.63l8.4,5.19c.87-1.28,1.68-2.58,2.45-3.92a61.55,61.55,0,0,0,8.1-30.51C285.81,71.86,257.85,44.14,223.35,44.14Z"/><path class="cls-2" d="M80.92,44.14H53.59A25.59,25.59,0,0,0,28,69.54v73A25.59,25.59,0,0,0,53.59,168h83.1V146.23a20.61,20.61,0,0,0-2.77-10.33Z"/><path class="cls-3" d="M150.73,106.14l35.79-62H113.33l35.81,62.09C149.86,107.61,150.25,106.93,150.73,106.14Z"/><path d="M307.43,160.32,298.82,155A89.21,89.21,0,0,0,287,42.63,89.58,89.58,0,0,0,233.88,17.1a14.23,14.23,0,0,0-6.91-15C220.35-1.84,212-.09,208.51,6l-6,10.46H97.38L91.55,6.39C88.09.4,79.84-1.26,73.22,2.71A14.39,14.39,0,0,0,66,16.49H53.59A53.22,53.22,0,0,0,.32,69.54v1.18A13.58,13.58,0,0,0,0,73.66V214.31a14,14,0,0,0,28,0V189a53.06,53.06,0,0,0,25.63,6.56H223.35a89.81,89.81,0,0,0,55.84-19.26l13.7,8.45a13.9,13.9,0,0,0,19.21-4.86A14.47,14.47,0,0,0,307.43,160.32ZM113.33,44.14h73.19l-35.79,62c-.48.79-.87,1.47-1.59.09ZM136.69,168H53.59A25.59,25.59,0,0,1,28,142.55v-73a25.59,25.59,0,0,1,25.63-25.4H80.92l53,91.76a20.61,20.61,0,0,1,2.77,10.33Zm146.52-44.21a61.56,61.56,0,0,1-5.5,12.82c-.77,1.34-1.58,2.64-2.45,3.92l-8.4-5.19a13.47,13.47,0,0,0-3.87-1.63,13.75,13.75,0,0,0-2.69-.39,14.23,14.23,0,0,0-2.69.14,14.68,14.68,0,0,0-2.61.66,14.42,14.42,0,0,0-2.45,1.16,14.13,14.13,0,0,0-4.9,4.92,14.51,14.51,0,0,0-.68,1.29,14.06,14.06,0,0,0-1.2,4.05,14.36,14.36,0,0,0,6.55,14.27l1,.61a62.22,62.22,0,0,1-10.52,4.52,63,63,0,0,1-7.53,1.94,63.62,63.62,0,0,1-7.87,1c-1.33.09-2.68.13-4,.13h-58.7V144.54a17.66,17.66,0,0,1,2.29-8.69l51.88-91.52c1.5-.11,3-.19,4.53-.19,34.5,0,62.46,27.72,62.46,61.91A61.14,61.14,0,0,1,283.21,123.74Z"/></g></g></svg>